# AST/ASF file generated using VICON BodyLanguage
# -----------------------------------------------
:version 1.10
:name VICON
:units
  mass 1.0
  length 0.45
  angle deg
:documentation
   .ast/.asf automatically generated from VICON data using
   VICON BodyBuilder and BodyLanguage model FoxedUp or BRILLIANT.MOD
:root
   order TX TY TZ RX RY RZ
   axis XYZ
   position 0 0 0  
   orientation 0 0 0 
:bonedata
  begin
     id 1 
     name lhipjoint
     direction 0.567725 -0.736092 0.368589 
     length 2.42353 
     axis 0 0 0  XYZ
  end
  begin
     id 2 
     name lfemur
     direction 0.34202 -0.939693 0  
     length 7.24894  
     axis 0 0 20  XYZ
    dof rx ry rz
    limits (-160.0 20.0)
           (-70.0 70.0)
           (-60.0 70.0)
  end
  begin
     id 3 
     name ltibia
     direction 0.34202 -0.939693 0   
     length 7.6997   
     axis 0 0 20   XYZ
    dof rx
    limits (-10.0 170.0)
  end
  begin
     id 4 
     name lfoot
     direction 0.100767 -0.276854 0.955614   
     length 2.37556   
     axis -90 7.62852e-016 20   XYZ
    dof rx rz
    limits (-45.0 90.0)
           (-70.0 20.0)
  end
  begin
     id 5 
     name ltoes
     direction 1.53592e-011 -4.21894e-011 1   
     length 1.18363   
     axis -90 7.62852e-016 20   XYZ
    dof rx
    limits (-90.0 20.0)
  end
  begin
     id 6 
     name rhipjoint
     direction -0.556459 -0.742938 0.372017   
     length 2.4012  
     axis 0 0 0  XYZ 
  end
  begin
     id 7 
     name rfemur
     direction -0.34202 -0.939693 0   
     length 7.5119   
     axis 0 0 -20   XYZ
    dof rx ry rz
    limits (-160.0 20.0)
           (-70.0 70.0)
           (-70.0 60.0)
  end
  begin
     id 8 
     name rtibia
     direction -0.34202 -0.939693 0   
     length 7.50155   
     axis 0 0 -20   XYZ
    dof rx
    limits (-10.0 170.0)
 end
 begin
     id 9 
     name rfoot
     direction -0.118427 -0.325376 0.938139   
     length 2.32487  
     axis -90 -7.62852e-016 -20   XYZ
    dof rx rz
    limits (-45.0 90.0)
           (-20.0 70.0)
  end
  begin
     id 10 
     name rtoes
     direction -1.53525e-011 -4.21868e-011 1   
     length 1.15233   
     axis -90 -7.62852e-016 -20   XYZ
    dof rx
    limits (-90.0 20.0)
  end
  begin
     id 11 
     name lowerback
     direction 0.0287568 0.999577 -0.00434502   
     length 2.15243   
     axis 0 0 0   XYZ
    dof rx ry rz
    limits (-20.0 45.0)
           (-30.0 30.0)
           (-30.0 30.0)
  end
  begin
     id 12 
     name upperback
     direction 0.0294009 0.99956 0.00404628   
     length 2.15427   
     axis 0 0 0   XYZ
    dof rx ry rz
    limits (-20.0 45.0)
           (-30.0 30.0)
           (-30.0 30.0)
  end
  begin
     id 13 
     name thorax
     direction 0.0151014 0.999868 0.0059419   
     length 2.14898   
     axis 0 0 0   XYZ
    dof rx ry rz
    limits (-20.0 45.0)
           (-30.0 30.0)
           (-30.0 30.0)
  end
  begin
     id 14 
     name lowerneck
     direction -0.0249197 0.989906 0.139515   
     length 1.6861   
     axis 0 0 0   XYZ
    dof rx ry rz
    limits (-20.0 45.0)
           (-30.0 30.0)
           (-30.0 30.0)
  end
  begin
     id 15 
     name upperneck
     direction 0.0438463 0.988795 -0.142693   
     length 1.71276   
     axis 0 0 0   XYZ
    dof rx ry rz
    limits (-20.0 45.0)
           (-30.0 30.0)
           (-30.0 30.0)
  end
  begin
     id 16
     name head
     direction 0.0148499 0.997845 -0.0639186  
     length 1.7209  
     axis 0 0 0   XYZ
    dof rx ry rz
    limits (-20.0 45.0)
           (-30.0 30.0)
           (-30.0 30.0)
  end
  begin
     id 17 
     name lclavicle
     direction 0.940298 0.323464 -0.105876  
     length 3.9048  
     axis 0 0 0   XYZ
    dof ry rz
    limits (-20.0 10.0)
           (0.0 20.0)
  end
  begin
     id 18 
     name lhumerus
     direction 1 -4.48954e-011 -4.9675e-028   
     length 4.6851   
     axis 180 -30 -90   XYZ
    dof rx ry rz
    limits (-60.0 90.0)
           (-90.0 90.0)
           (-90.0 90.0)
  end
  begin
     id 19
     name lradius
     direction 1 -4.48992e-011 -1.03359e-026   
     length 3.39626   
     axis 180 -30 -90   XYZ
    dof rx
    limits (-10.0 170.0)
  end
  begin
     id 20
     name lwrist
     direction 1 -4.48906e-011 -1.67336e-026   
     length 1.69813   
     axis 9.90442e-015 90 90   XYZ
    dof ry
    limits (-180.0 0.0)
 end
  begin
     id 21 
     name lhand
     direction 1 -4.49006e-011 -3.34673e-026   
     length 0.486078   
     axis 2.1355e-014 90 90   XYZ
    dof rx rz
    limits (-90.0 90.0)
           (-45.0 45.0)
  end
  begin
     id 22 
     name lfingers
     direction 1 -4.48992e-011 -6.69345e-026   
     length 0.391889   
     axis 4.27099e-014 90 90   XYZ
    dof rx
    limits (0.0 90.0)
  end
  begin
     id 23
     name lthumb
     direction 0.707107 -6.34926e-011 0.707107   
     length 0.562676   
     axis -90 45 2.85299e-015   XYZ
    dof rx rz
    limits (-45.0 45.0)
           (-45.0 45.0)
  end
  begin
     id 24 
     name rclavicle
     direction -0.882459 0.414895 -0.221648   
     length 3.44646  
     axis 0 0 0   XYZ 
    dof ry rz
    limits (-10.0 20.0)
           (-20.0 0.0)
  end
  begin
     id 25 
     name rhumerus
     direction -1 -4.48962e-011 -2.37984e-027  
     length 5.55576   
     axis 180 30 90   XYZ
    dof rx ry rz
    limits (-90.0 60.0)
           (-90.0 90.0)
           (-90.0 90.0)
  end
  begin
     id 26 
     name rradius
     direction -1 -4.48982e-011 -6.86791e-027   
     length 3.32774   
     axis 180 30 90   XYZ
    dof rx
    limits (-10.0 170.0)
  end
  begin
     id 27 
     name rwrist
     direction -1 -4.48961e-011 -1.67336e-026   
     length 1.66387   
     axis 9.90442e-015 -90 -90   XYZ
    dof ry
    limits (-180.0 0.0)
  end
  begin
     id 28
     name rhand
     direction -1 -4.4897e-011 -3.34673e-026   
     length 0.507628   
     axis 2.1355e-014 -90 -90   XYZ
    dof rx rz
    limits (-90.0 90.0)
           (-45.0 45.0)
  end
  begin
     id 29
     name rfingers
     direction -1 -4.48854e-011 -6.69345e-026   
     length 0.409263   
     axis 4.27099e-014 -90 -90   XYZ
    dof rx
    limits (0.0 90.0)
  end
  begin
     id 30
     name rthumb
     direction -0.707107 -6.34913e-011 0.707107   
     length 0.587622   
     axis -90 -45 -2.85299e-015   XYZ
    dof rx rz
    limits (-45.0 45.0)
           (-45.0 45.0)
  end
:hierarchy
  begin
    root lhipjoint rhipjoint lowerback
    lhipjoint lfemur
    lfemur ltibia
    ltibia lfoot
    lfoot ltoes
    rhipjoint rfemur
    rfemur rtibia
    rtibia rfoot
    rfoot rtoes
    lowerback upperback
    upperback thorax
    thorax lowerneck lclavicle rclavicle
    lowerneck upperneck
    upperneck head
    lclavicle lhumerus
    lhumerus lradius
    lradius lwrist
    lwrist lhand lthumb
    lhand lfingers
    rclavicle rhumerus
    rhumerus rradius
    rradius rwrist
    rwrist rhand rthumb
    rhand rfingers
  end

#!OML:ASF E:\motion texture\Top Level 1\Subject 1\Session 1\male.ASF
:FULLY-SPECIFIED
:DEGREES
79
root 22.0343 17.8752 5.22055 458.578 -80.2934 -453.18
lowerback 0.506312 -0.0493184 7.19527
upperback -3.2108 0.0880903 3.81382
thorax -3.60736 -0.165101 -0.0789912
lowerneck -10.5908 -8.74512 -13.3761
upperneck 7.6186 -10.2019 4.4334
head 4.91467 -5.16398 2.66756
rclavicle 5.02242e-015 -4.29375e-014
rhumerus -1.82497 -4.64269 -48.9364
rradius 65.3207
rwrist 4.71555
rhand -22.1572 -26.4742
rfingers 7.12502
rthumb 4.25698 -56.4114
lclavicle 5.02242e-015 -4.29375e-014
lhumerus -33.0425 15.1856 68.5449
lradius 28.0687
lwrist -27.0616
lhand -14.1656 20.9639
lfingers 7.12502
lthumb 11.9695 50.6016
rfemur -3.92367 5.95878 34.848
rtibia 16.2332
rfoot -12.5061 -5.81195
rtoes 15.2478
lfemur -31.6684 4.41315 -4.21935
ltibia 36.7759
lfoot -9.20613 7.11888
ltoes -16.6463
80
root 21.921 17.8642 5.2157 459.27 -80.2332 -453.795
lowerback 0.449988 0.018741 7.25586
upperback -3.26787 0.17738 3.67294
thorax -3.62997 -0.125107 -0.261347
lowerneck -10.6859 -8.6925 -13.3082
upperneck 7.60972 -10.1256 4.42414
head 4.91669 -5.12351 2.65901
rclavicle -1.13059e-015 3.83654e-014
rhumerus -0.319252 -4.93427 -47.5245
rradius 67.1445
rwrist 4.70139
rhand -22.5501 -26.6675
rfingers 7.12502
rthumb 3.87757 -56.612
lclavicle -1.13059e-015 3.83654e-014
lhumerus -32.967 14.3563 68.582
lradius 28.8644
lwrist -26.3775
lhand -14.016 20.9139
lfingers 7.12502
lthumb 12.1137 50.5432
rfemur -3.64121 5.95003 34.9465
rtibia 16.3408
rfoot -12.8265 -5.73511
rtoes 14.8829
lfemur -31.6629 4.15031 -3.96248
ltibia 34.5907
lfoot -9.04417 7.57494
ltoes -16.563
81
root 21.8054 17.8523 5.21199 459.907 -80.1654 -454.349
lowerback 0.378339 0.0880428 7.3387
upperback -3.32635 0.266805 3.53316
thorax -3.64485 -0.0858009 -0.454758
lowerneck -10.7477 -8.63565 -13.2425
upperneck 7.57152 -10.0492 4.42941
head 4.90508 -5.08215 2.65713
rclavicle 8.28528e-015 -7.41467e-014
rhumerus 1.16467 -5.29634 -46.0791
rradius 68.9294
rwrist 4.70749
rhand -22.9297 -26.8371
rfingers 7.12502
rthumb 3.51096 -56.788
lclavicle 8.28528e-015 -7.41467e-014
lhumerus -32.9395 13.5157 68.6261
lradius 29.7267
lwrist -25.681
lhand -13.7957 20.8898
lfingers 7.12502
lthumb 12.3261 50.5064
rfemur -3.34802 5.92614 35.0422
rtibia 16.435
rfoot -13.14 -5.64222
rtoes 14.4998
lfemur -31.6038 3.83305 -3.67803
ltibia 32.3364
lfoot -8.89569 8.00271
ltoes -16.4899
82
root 21.6874 17.8397 5.20909 460.487 -80.087 -454.84
lowerback 0.288637 0.156964 7.44044
upperback -3.38228 0.353596 3.39842
thorax -3.64642 -0.0481766 -0.653194
lowerneck -10.7923 -8.57654 -13.1669
upperneck 7.51112 -9.97275 4.42612
head 4.8828 -5.04078 2.65221
rclavicle -5.72205e-015 5.06901e-014
rhumerus 2.63132 -5.73019 -44.6062
rradius 70.6729
rwrist 4.71365
rhand -23.3142 -26.9945
rfingers 7.12502
rthumb 3.13971 -56.9511
lclavicle -5.72205e-015 5.06901e-014
lhumerus -32.9568 12.6834 68.6727
lradius 30.6521
lwrist -24.9865
lhand -13.5187 20.8646
lfingers 7.12502
lthumb 12.5932 50.465
rfemur -3.046 5.89098 35.1406
rtibia 16.5192
rfoot -13.4456 -5.53871
rtoes 14.0783
lfemur -31.4921 3.46557 -3.35864
ltibia 30.019
lfoot -8.752 8.39235
ltoes -16.4603
83
root 21.5672 17.8265 5.207 460.986 -79.9994 -455.244
lowerback 0.193429 0.223119 7.55791
upperback -3.44406 0.436284 3.27107
thorax -3.65073 -0.0135027 -0.852276
lowerneck -10.8279 -8.51724 -13.091
upperneck 7.44773 -9.89661 4.41475
head 4.85781 -5.00015 2.64503
rclavicle 2.54431e-015 6.03808e-015
rhumerus 4.08001 -6.236 -43.1129
rradius 72.378
rwrist 4.72523
rhand -23.6603 -27.1571
rfingers 7.12502
rthumb 2.80547 -57.1184
lclavicle 2.54431e-015 6.03808e-015
lhumerus -33.0399 11.8471 68.7257
lradius 31.6571
lwrist -24.265
lhand -13.1986 20.8522
lfingers 7.12502
lthumb 12.9018 50.4334
rfemur -2.73968 5.83 35.2385
rtibia 16.5926
rfoot -13.7385 -5.41868
rtoes 13.5928
lfemur -31.3406 3.04435 -3.00488
ltibia 27.6623
lfoot -8.60629 8.73796
ltoes -16.4559
84
root 21.4449 17.8128 5.20579 461.461 -79.9021 -455.62
lowerback 0.0827422 0.29049 7.69231
upperback -3.50377 0.518642 3.14942
thorax -3.64353 0.0206736 -1.05459
lowerneck -10.853 -8.45854 -13.0022
upperneck 7.37991 -9.82207 4.37615
head 4.82788 -4.96161 2.62777
rclavicle -2.76435e-016 1.43622e-014
rhumerus 5.50078 -6.81366 -41.6025
rradius 74.0469
rwrist 4.73697
rhand -23.9891 -27.3493
rfingers 7.12502
rthumb 2.48784 -57.3145
lclavicle -2.76435e-016 1.43622e-014
lhumerus -33.1797 10.999 68.7879
lradius 32.7429
lwrist -23.5098
lhand -12.8532 20.8379
lfingers 7.12502
lthumb 13.2347 50.3977
rfemur -2.42349 5.75714 35.3388
rtibia 16.6568
rfoot -14.0157 -5.29129
rtoes 13.0491
lfemur -31.1456 2.57994 -2.61733
ltibia 25.2816
lfoot -8.44428 9.04514
ltoes -16.4828
